<svg width="14" height="15" viewBox="0 0 14 15" fill="none" xmlns="http://www.w3.org/2000/svg">
<path d="M5.13046 7.03734C5.1101 7.03734 5.09653 7.03734 5.07617 7.03734C5.04224 7.03056 4.99474 7.03056 4.95402 7.03734C2.98601 6.97627 1.49982 5.429 1.49982 3.52206C1.49982 1.5812 3.08102 0 5.02188 0C6.96275 0 8.54395 1.5812 8.54395 3.52206C8.53716 5.429 7.04419 6.97627 5.15082 7.03734C5.14404 7.03734 5.13725 7.03734 5.13046 7.03734ZM5.02188 1.01794C3.64427 1.01794 2.51776 2.14446 2.51776 3.52206C2.51776 4.87931 3.57641 5.9719 4.92688 6.01941C4.96759 6.01262 5.05581 6.01262 5.14404 6.01941C6.47414 5.95833 7.51922 4.86574 7.52601 3.52206C7.52601 2.14446 6.39949 1.01794 5.02188 1.01794Z" fill="#787486"/>
<path d="M10.1387 7.12554C10.1184 7.12554 10.098 7.12554 10.0776 7.11876C9.7994 7.1459 9.51437 6.9491 9.48723 6.67087C9.46008 6.39263 9.62974 6.14154 9.90798 6.10761C9.98941 6.10082 10.0776 6.10082 10.1523 6.10082C11.1431 6.04653 11.9167 5.23218 11.9167 4.2346C11.9167 3.20309 11.082 2.36838 10.0505 2.36838C9.77225 2.37517 9.54152 2.14443 9.54152 1.8662C9.54152 1.58796 9.77225 1.35723 10.0505 1.35723C11.6385 1.35723 12.9346 2.6534 12.9346 4.24139C12.9346 5.80222 11.7131 7.06447 10.1591 7.12554C10.1523 7.12554 10.1455 7.12554 10.1387 7.12554Z" fill="#787486"/>
<path d="M5.13719 14.4547C3.80709 14.4547 2.4702 14.1154 1.45904 13.4368C0.515755 12.8124 0 11.9574 0 11.0276C0 10.0979 0.515755 9.23607 1.45904 8.60495C3.49492 7.25448 6.79304 7.25448 8.81534 8.60495C9.75184 9.22928 10.2744 10.0843 10.2744 11.0141C10.2744 11.9438 9.75863 12.8056 8.81534 13.4368C7.7974 14.1154 6.4673 14.4547 5.13719 14.4547ZM2.0223 9.46001C1.37082 9.89433 1.01794 10.4508 1.01794 11.0344C1.01794 11.6113 1.37761 12.1677 2.0223 12.5953C3.71208 13.7286 6.56231 13.7286 8.25208 12.5953C8.90356 12.1609 9.25645 11.6045 9.25645 11.0209C9.25645 10.444 8.89678 9.88755 8.25208 9.46001C6.56231 8.3335 3.71208 8.3335 2.0223 9.46001Z" fill="#787486"/>
<path d="M11.3602 13.2332C11.1227 13.2332 10.9123 13.0703 10.8648 12.826C10.8105 12.5478 10.9869 12.2831 11.2584 12.222C11.6859 12.1338 12.0795 11.9642 12.3849 11.7266C12.7717 11.4348 12.9821 11.0684 12.9821 10.6816C12.9821 10.2947 12.7717 9.92829 12.3917 9.64327C12.0931 9.41253 11.7199 9.24966 11.2788 9.14787C11.0073 9.08679 10.8309 8.81534 10.8919 8.53711C10.953 8.26566 11.2245 8.08922 11.5027 8.15029C12.0863 8.27923 12.5953 8.50996 13.0092 8.82892C13.6404 9.30395 14 9.97579 14 10.6816C14 11.3873 13.6336 12.0592 13.0025 12.541C12.5817 12.8667 12.0524 13.1043 11.4688 13.2196C11.4281 13.2332 11.3941 13.2332 11.3602 13.2332Z" fill="#787486"/>
</svg>
