<svg width="15" height="15" viewBox="0 0 15 15" fill="none" xmlns="http://www.w3.org/2000/svg">
<path d="M13.425 8.625L1.575 8.625C0.45 8.625 -2.57897e-07 9.1 -2.05444e-07 10.3L-7.32166e-08 13.325C-2.07629e-08 14.525 0.45 15 1.575 15L13.425 15C14.55 15 15 14.525 15 13.325L15 10.3C15 9.1 14.55 8.625 13.425 8.625Z" fill="white"/>
<path d="M13.425 3.66849e-07L1.575 8.84829e-07C0.45 9.34004e-07 -2.57897e-07 0.475001 -2.05443e-07 1.675L-7.32165e-08 4.7C-2.11271e-08 5.89167 0.45 6.375 1.575 6.375L13.425 6.375C14.55 6.375 15 5.9 15 4.7L15 1.675C15 0.475 14.55 3.17674e-07 13.425 3.66849e-07Z" fill="white"/>
</svg>
