<svg width="17" height="17" viewBox="0 0 17 17" fill="none" xmlns="http://www.w3.org/2000/svg">
<path d="M13.3372 5.92424C14.7598 5.92424 15.913 4.77104 15.913 3.34848C15.913 1.92593 14.7598 0.772727 13.3372 0.772727C11.9147 0.772727 10.7615 1.92593 10.7615 3.34848C10.7615 4.77104 11.9147 5.92424 13.3372 5.92424Z" stroke="#787486" stroke-width="1.5" stroke-miterlimit="10" stroke-linecap="round" stroke-linejoin="round"/>
<path d="M3.34849 5.92424C4.77104 5.92424 5.92424 4.77104 5.92424 3.34848C5.92424 1.92593 4.77104 0.772727 3.34849 0.772727C1.92594 0.772727 0.772727 1.92593 0.772727 3.34848C0.772727 4.77104 1.92594 5.92424 3.34849 5.92424Z" stroke="#787486" stroke-width="1.5" stroke-miterlimit="10" stroke-linecap="round" stroke-linejoin="round"/>
<path d="M13.3372 16.2273C14.7598 16.2273 15.913 15.0741 15.913 13.6515C15.913 12.229 14.7598 11.0758 13.3372 11.0758C11.9147 11.0758 10.7615 12.229 10.7615 13.6515C10.7615 15.0741 11.9147 16.2273 13.3372 16.2273Z" stroke="#787486" stroke-width="1.5" stroke-miterlimit="10" stroke-linecap="round" stroke-linejoin="round"/>
<path d="M3.34849 16.2273C4.77104 16.2273 5.92424 15.0741 5.92424 13.6515C5.92424 12.229 4.77104 11.0758 3.34849 11.0758C1.92594 11.0758 0.772727 12.229 0.772727 13.6515C0.772727 15.0741 1.92594 16.2273 3.34849 16.2273Z" stroke="#787486" stroke-width="1.5" stroke-miterlimit="10" stroke-linecap="round" stroke-linejoin="round"/>
</svg>
