<svg width="15" height="15" viewBox="0 0 15 15" fill="none" xmlns="http://www.w3.org/2000/svg">
<path d="M7.47912 15C6.99906 15 6.54684 14.7565 6.2268 14.3321L5.1832 12.9406C5.16233 12.9128 5.07884 12.878 5.04406 12.871H4.69619C1.79499 12.871 0 12.0849 0 8.17485V4.69619C0 1.62106 1.62106 0 4.69619 0H10.262C13.3372 0 14.9582 1.62106 14.9582 4.69619V8.17485C14.9582 11.25 13.3372 12.871 10.262 12.871H9.91418C9.85852 12.871 9.80982 12.8989 9.77503 12.9406L8.73144 14.3321C8.4114 14.7565 7.95917 15 7.47912 15ZM4.69619 1.0436C2.20547 1.0436 1.0436 2.20547 1.0436 4.69619V8.17485C1.0436 11.3196 2.12198 11.8274 4.69619 11.8274H5.04406C5.39888 11.8274 5.8024 12.0292 6.01808 12.3145L7.06168 13.7059C7.30519 14.026 7.65305 14.026 7.89656 13.7059L8.94016 12.3145C9.16975 12.0083 9.53153 11.8274 9.91418 11.8274H10.262C12.7528 11.8274 13.9146 10.6656 13.9146 8.17485V4.69619C13.9146 2.20547 12.7528 1.0436 10.262 1.0436H4.69619Z" fill="#787486"/>
<path d="M7.47912 7.47916C7.08951 7.47916 6.78339 7.16608 6.78339 6.78343C6.78339 6.40078 7.09647 6.0877 7.47912 6.0877C7.86177 6.0877 8.17485 6.40078 8.17485 6.78343C8.17485 7.16608 7.86873 7.47916 7.47912 7.47916Z" fill="#787486"/>
<path d="M10.2621 7.47916C9.87246 7.47916 9.56634 7.16608 9.56634 6.78343C9.56634 6.40078 9.87941 6.0877 10.2621 6.0877C10.6447 6.0877 10.9578 6.40078 10.9578 6.78343C10.9578 7.16608 10.6517 7.47916 10.2621 7.47916Z" fill="#787486"/>
<path d="M4.69623 7.47916C4.30662 7.47916 4.0005 7.16608 4.0005 6.78343C4.0005 6.40078 4.31358 6.0877 4.69623 6.0877C5.07889 6.0877 5.39197 6.40078 5.39197 6.78343C5.39197 7.16608 5.08584 7.47916 4.69623 7.47916Z" fill="#787486"/>
</svg>
