<svg width="22" height="21" viewBox="0 0 22 21" fill="none" xmlns="http://www.w3.org/2000/svg">
<path d="M16.0326 17.0506H11.9608L7.43097 20.0637C6.75913 20.5116 5.85317 20.0332 5.85317 19.2188V17.0506C2.79934 17.0506 0.763457 15.0147 0.763457 11.9609V5.85317C0.763457 2.79934 2.79934 0.763457 5.85317 0.763457H16.0326C19.0864 0.763457 21.1223 2.79934 21.1223 5.85317V11.9609C21.1223 15.0147 19.0864 17.0506 16.0326 17.0506Z" stroke="#787486" stroke-width="1.5" stroke-miterlimit="10" stroke-linecap="round" stroke-linejoin="round"/>
<path d="M10.943 9.85368V9.63995C10.943 8.94775 11.3705 8.58128 11.798 8.28607C12.2154 8.00105 12.6327 7.6346 12.6327 6.96276C12.6327 6.02625 11.8795 5.27294 10.943 5.27294C10.0064 5.27294 9.25319 6.02625 9.25319 6.96276" stroke="#787486" stroke-width="1.5" stroke-linecap="round" stroke-linejoin="round"/>
<path d="M10.9383 12.2866H10.9475" stroke="#787486" stroke-width="1.5" stroke-linecap="round" stroke-linejoin="round"/>
</svg>
