<svg width="14" height="15" viewBox="0 0 14 15" fill="none" xmlns="http://www.w3.org/2000/svg">
<path d="M4.08129 0.665978V2.71516" stroke="#787486" stroke-width="1.3" stroke-miterlimit="10" stroke-linecap="round" stroke-linejoin="round"/>
<path d="M9.54582 0.665978V2.71516" stroke="#787486" stroke-width="1.3" stroke-miterlimit="10" stroke-linecap="round" stroke-linejoin="round"/>
<path d="M9.5458 1.69057C11.8204 1.81352 12.9611 2.68101 12.9611 5.89139V10.1127C12.9611 12.9269 12.278 14.334 8.86274 14.334H4.76437C1.34907 14.334 0.666009 12.9269 0.666009 10.1127V5.89139C0.666009 2.68101 1.80672 1.82035 4.08131 1.69057H9.5458Z" stroke="#787486" stroke-width="1.3" stroke-miterlimit="10" stroke-linecap="round" stroke-linejoin="round"/>
<path d="M12.7904 11.3217H0.836795" stroke="#787486" stroke-width="1.3" stroke-miterlimit="10" stroke-linecap="round" stroke-linejoin="round"/>
<path d="M6.81354 4.9351C5.97337 4.9351 5.26299 5.39275 5.26299 6.28073C5.26299 6.70423 5.46108 7.02526 5.76162 7.23018C5.34496 7.47608 5.10588 7.87226 5.10588 8.33674C5.10588 9.18374 5.75479 9.70969 6.81354 9.70969C7.86545 9.70969 8.52119 9.18374 8.52119 8.33674C8.52119 7.87226 8.28212 7.46925 7.85862 7.23018C8.166 7.01843 8.35725 6.70423 8.35725 6.28073C8.35725 5.39275 7.6537 4.9351 6.81354 4.9351ZM6.81354 6.87499C6.45834 6.87499 6.19878 6.66324 6.19878 6.32854C6.19878 5.98701 6.45834 5.78892 6.81354 5.78892C7.16873 5.78892 7.42829 5.98701 7.42829 6.32854C7.42829 6.66324 7.16873 6.87499 6.81354 6.87499ZM6.81354 8.8627C6.36272 8.8627 6.03485 8.63729 6.03485 8.22745C6.03485 7.81761 6.36272 7.59904 6.81354 7.59904C7.26436 7.59904 7.59223 7.82445 7.59223 8.22745C7.59223 8.63729 7.26436 8.8627 6.81354 8.8627Z" fill="#787486"/>
</svg>
